PathFileType	4	(X/Y/Z)	5_coords_data.trc
DataRate	CameraRate	NumFrames	NumMarkers	Units	OrigDataRate	OrigDataStartFrame	OrigNumFrames
30.0	30.0	9	21	m	30.0	40	59
Frame#	Time	THUMB_TIP	THUMB_IP	THUMB_MCP	THUMB_CMC	INDEX_TIP	INDEX_DIP	INDEX_PIP	INDEX_MCP	MIDDLE_TIP	MIDDLE_DIP	MIDDLE_PIP	MIDDLE_MCP	RING_TIP	RING_DIP	RING_PIP	RING_MCP	PINKY_TIP	PINKY_DIP	PINKY_PIP	PINKY_MCP	WRIST
X1	Y1	Z1	X2	Y2	Z2	X3	Y3	Z3	X4	Y4	Z4	X5	Y5	Z5	X6	Y6	Z6	X7	Y7	Z7	X8	Y8	Z8	X9	Y9	Z9	X10	Y10	Z10	X11	Y11	Z11	X12	Y12	Z12	X13	Y13	Z13	X14	Y14	Z14	X15	Y15	Z15	X16	Y16	Z16	X17	Y17	Z17	X18	Y18	Z18	X19	Y19	Z19	X20	Y20	Z20	X21	Y21	Z21
39	1.3	-0.025783599853515624	-0.15415899658203125	0.97264599609375	-0.021230199813842773	-0.1340299987792969	0.9889639892578125	-0.023023000717163088	-0.12380999755859375	1.0183800048828124	-0.01977560043334961	-0.09469740295410156	1.034260009765625	-0.006275310039520264	-0.0999052963256836	1.0208800048828126	-0.001613430023193359	-0.10407599639892579	1.0004199829101563	-0.00596589994430542	-0.1095780029296875	0.9779439697265625	-0.046040599822998046	-0.10849400329589844	0.9849760131835937	-0.009349909782409668	-0.08758209991455078	1.0190800170898437	0.000264894008636474	-0.08727580261230469	1.00075	-0.005435359954833984	-0.09002760314941406	0.9731729736328125	-0.04732360076904297	-0.08902739715576172	0.980656982421875	-0.01375059986114502	-0.07237129974365235	1.0176599731445313	-0.002286329984664917	-0.0712948989868164	1.00225	-0.0045992197990417484	-0.07076999664306641	0.976375	-0.044494598388671876	-0.07030549621582032	0.9818670043945312	-0.015627099990844728	-0.058713001251220705	1.0144000244140625	-0.004487490177154541	-0.057276798248291017	1.000239990234375	-0.006722740173339844	-0.055280101776123046	0.9829429931640625	-0.03615999984741211	-0.05253770065307617	0.9848920288085937	-0.03189259910583496	-0.06383209991455079	1.049760009765625
40	1.3333333333333333	-0.026029699325561522	-0.1543179931640625	0.97281201171875	-0.021462799072265625	-0.13427000427246094	0.989176025390625	-0.02342390060424805	-0.12398799896240234	1.018469970703125	-0.0198356990814209	-0.09485910034179687	1.0344200439453124	-0.005033349990844727	-0.10032599639892578	1.020260009765625	-0.0009049609899520871	-0.10465899658203125	0.9999559936523438	-0.0062477998733520505	-0.11016200256347657	0.977344970703125	-0.0464650993347168	-0.10834400177001953	0.9847449951171875	-0.008173210144042969	-0.08797419738769531	1.0204400024414062	0.0008871380090713501	-0.08792060089111328	1.000489990234375	-0.005593629837036132	-0.0905779037475586	0.9729390258789062	-0.04747940063476563	-0.08888330078125	0.9806959838867187	-0.012944600105285645	-0.07294629669189454	1.0180399780273437	-0.001390190005302429	-0.07183560180664063	1.0023099975585938	-0.004701970100402832	-0.07118450164794922	0.976083984375	-0.04462720108032227	-0.07025150299072265	0.981906982421875	-0.014693699836730956	-0.05919810104370117	1.014510009765625	-0.0035767500400543215	-0.05780170059204102	0.9999359741210937	-0.006632369995117187	-0.05568470001220703	0.9826619873046875	-0.03602679824829102	-0.0526348991394043	0.98481201171875	-0.0321619987487793	-0.0639723014831543	1.049969970703125
41	1.3666666666666667	-0.026447099685668947	-0.15489199829101563	0.9738900146484375	-0.02184819984436035	-0.13478399658203125	0.9899500122070313	-0.023781499862670898	-0.12418499755859375	1.0190399780273438	-0.019994300842285158	-0.09502670288085938	1.034469970703125	0.001336989998817443	-0.1015250015258789	1.0153400268554686	0.0017040799856185911	-0.1061510009765625	0.9947680053710938	-0.00808230972290039	-0.11150900268554688	0.9735490112304688	-0.04720949935913086	-0.10835900115966797	0.9854310302734375	-0.001196709990501403	-0.08809459686279297	1.01677001953125	0.00422652006149292	-0.08877100372314453	0.9970469970703125	-0.007300529956817627	-0.09162210083007813	0.9706160278320313	-0.04848189926147461	-0.08886299896240234	0.981239990234375	-0.0046415400505065915	-0.07324199676513672	1.022239990234375	0.001861850023269653	-0.07226110076904296	0.9991640014648437	-0.0064445300102233885	-0.0716405029296875	0.9737230224609374	-0.045960601806640626	-0.07029049682617187	0.9823920288085938	-0.009349570274353028	-0.06055799865722656	1.0135	-0.0016124500036239619	-0.058547298431396486	0.99739501953125	-0.008034810066223145	-0.05617409896850586	0.980468017578125	-0.03745199966430664	-0.05271329879760742	0.9850079956054687	-0.032542301177978517	-0.06361249923706054	1.050260009765625
42	1.4	-0.025412200927734375	-0.15611900329589845	0.9758939819335938	-0.021231500625610352	-0.13579100036621095	0.991302978515625	-0.024130300521850587	-0.12452799987792969	1.0198900146484375	-0.020532100677490235	-0.09518669891357422	1.0350999755859376	0.012726699829101563	-0.10496499633789062	1.004	0.005791190147399902	-0.10894300079345703	0.9850029907226563	-0.009608610153198242	-0.11319100189208985	0.9680440063476563	-0.04734429931640625	-0.10857900238037109	0.9856069946289062	0.012175100326538086	-0.08782070159912109	1.0089400024414064	0.01095419979095459	-0.09033409881591797	0.987802978515625	-0.008482370376586914	-0.0932074966430664	0.9667760009765625	-0.048610500335693356	-0.08902999877929688	0.9813809814453125	0.009094409942626953	-0.07392489624023438	1.0118300170898438	0.008131340026855468	-0.0727666015625	0.9913469848632812	-0.007914840221405029	-0.07200270080566407	0.9690830078125	-0.046233001708984374	-0.07058760070800782	0.98227001953125	0.001173239946365356	-0.06200749969482422	1.008010009765625	0.002603450059890747	-0.0590629997253418	0.9911539916992187	-0.009284899711608887	-0.05639009857177734	0.977177978515625	-0.03837950134277344	-0.053008899688720704	0.9844959716796875	-0.033490200042724606	-0.06325199890136719	1.0505899658203126
43	1.4333333333333333	-0.024427900314331053	-0.1574199981689453	0.9779149780273437	-0.020622299194335936	-0.1368459930419922	0.9928770141601563	-0.024544200897216796	-0.12483399963378906	1.0211099853515626	-0.021373300552368163	-0.09526799774169922	1.0360400390625	0.021130500793457033	-0.11062000274658203	0.98714697265625	0.007981379985809327	-0.11298500061035156	0.9721829833984375	-0.012505900382995606	-0.11495999908447266	0.9614650268554688	-0.04600239944458008	-0.10899400329589844	0.9855089721679687	0.028120899200439455	-0.09185769653320312	0.9911329956054687	0.016435600280761718	-0.09363700103759766	0.9738289794921875	-0.009677080154418946	-0.09473789978027344	0.9606719970703125	-0.04732350158691406	-0.0891977996826172	0.9811160278320312	0.0253164005279541	-0.07502349853515625	0.9945390014648438	0.014837100028991699	-0.07342220306396484	0.9770609741210937	-0.008979599952697754	-0.07231739807128906	0.9626480102539062	-0.04483720016479492	-0.07069300079345703	0.9817269897460937	0.013691900253295898	-0.06310609817504882	0.9964760131835938	0.006867290019989014	-0.059347599029541016	0.9816199951171874	-0.009387020111083985	-0.05643510055541992	0.97247802734375	-0.03764020156860352	-0.05306399917602539	0.9840230102539063	-0.03432389831542969	-0.0627839012145996	1.0508299560546874
44	1.4666666666666666	-0.023377099990844728	-0.15864100646972656	0.9798150024414063	-0.019956699371337892	-0.1378560028076172	0.9944229736328125	-0.024973800659179687	-0.12507599639892578	1.021739990234375	-0.02179210090637207	-0.09478489685058594	1.036280029296875	0.02623870086669922	-0.11650800323486328	0.9706840209960937	0.00845518970489502	-0.11651899719238282	0.9602899780273437	-0.01462779998779297	-0.11572100067138671	0.9563900146484375	-0.04328290176391601	-0.1089260025024414	0.9849290161132812	0.03776570129394531	-0.0976344985961914	0.9665170288085938	0.018233200073242188	-0.0972614974975586	0.9571209716796875	-0.011047499656677246	-0.09578890228271485	0.9543920288085938	-0.04454859924316406	-0.08875150299072265	0.9803410034179687	0.034538299560546874	-0.07762079620361328	0.9715709838867187	0.017370599746704102	-0.07478269958496093	0.9606729736328125	-0.009974200248718262	-0.0725009994506836	0.9552750244140625	-0.04151319885253906	-0.07027700042724609	0.9809559936523438	0.023793500900268556	-0.06399560165405273	0.9786829833984375	0.009772210121154786	-0.0595088005065918	0.9694580078125	-0.008697850227355957	-0.05620690155029297	0.966677001953125	-0.03349700164794922	-0.05274729919433594	0.9831699829101562	-0.03502959823608399	-0.06271620178222656	1.050719970703125
45	1.5	-0.022142499923706056	-0.15993600463867189	0.9822639770507813	-0.01908259963989258	-0.13863299560546874	0.9963319702148438	-0.025491899490356445	-0.12501499938964844	1.0227100219726561	-0.022343000411987304	-0.09418689727783203	1.0366600341796874	0.02686240005493164	-0.12135900115966797	0.951302978515625	0.0061310000419616695	-0.11905899810791015	0.9488189697265625	-0.016794099807739257	-0.11617400360107422	0.952364990234375	-0.03975920104980469	-0.10884500122070312	0.9840700073242188	0.03801100158691406	-0.10108599853515625	0.9395269775390624	0.015729100227355956	-0.09911060333251953	0.9413189697265625	-0.012432600021362305	-0.09584020233154297	0.9487379760742187	-0.040634700775146484	-0.08830470275878906	0.9790759887695313	0.035472599029541016	-0.07960759735107421	0.9453579711914063	0.014862600326538087	-0.07573500061035156	0.9439390258789062	-0.012114100456237793	-0.07249400329589843	0.9487830200195313	-0.03699670028686523	-0.06994049835205078	0.9801790161132813	0.025379899978637696	-0.06349700164794922	0.9578159790039062	0.008054710388183594	-0.05851979827880859	0.9561690063476562	-0.009842350006103515	-0.05533110046386719	0.9604650268554688	-0.02812269973754883	-0.052694698333740235	0.982719970703125	-0.0361875991821289	-0.06253670120239258	1.05077001953125
46	1.5333333333333334	-0.019888599395751952	-0.1617729949951172	0.9859769897460937	-0.017196699142456053	-0.139697998046875	0.9991790161132813	-0.02498500061035156	-0.12498799896240234	1.0240999755859375	-0.0227101993560791	-0.09359719848632812	1.0373199462890625	0.0245674991607666	-0.12367299652099609	0.9359349975585938	0.00385450005531311	-0.12029199981689453	0.9408629760742188	-0.01712540054321289	-0.11655999755859375	0.950281982421875	-0.035839500427246096	-0.1090780029296875	0.9830689697265625	0.03196820068359375	-0.10010900115966796	0.918905029296875	0.011450200080871583	-0.09817420196533203	0.92977001953125	-0.013296799659729004	-0.09503579711914062	0.9449810180664062	-0.036333301544189456	-0.0884540023803711	0.977635986328125	0.03009119987487793	-0.07733429718017579	0.9257369995117187	0.009816980361938477	-0.073877197265625	0.9327589721679688	-0.014144200325012207	-0.07109329986572266	0.9451370239257812	-0.03311399841308594	-0.06987449645996094	0.9791439819335938	0.01996080017089844	-0.059474700927734374	0.9430560302734375	0.002548640012741089	-0.05510960006713867	0.94760498046875	-0.012988900184631348	-0.053036800384521486	0.956968017578125	-0.025097299575805664	-0.05266479873657227	0.9824559936523437	-0.03746699905395508	-0.062369098663330076	1.0508900146484375
47	1.5666666666666667	-0.019063400268554687	-0.1629949951171875	0.9887730102539063	-0.016382499694824217	-0.14034700012207033	1.0011099853515626	-0.02484000015258789	-0.12471600341796875	1.0251500244140626	-0.02329159927368164	-0.09294999694824219	1.0379300537109375	0.020663299560546876	-0.12271199798583984	0.9260250244140625	0.001408450007438659	-0.11933599853515625	0.935969970703125	-0.017508600234985353	-0.11561900329589844	0.9492540283203125	-0.033468799591064455	-0.10876699829101563	0.9826630249023437	0.02472330093383789	-0.09721309661865235	0.9073579711914063	0.007198800086975097	-0.09607350158691406	0.9231699829101563	-0.0141697998046875	-0.09367459869384766	0.9432689819335938	-0.03396329879760742	-0.08821820068359375	0.9772139892578126	0.022925600051879883	-0.07471939849853515	0.91372998046875	0.004913199901580811	-0.0719385986328125	0.9266119995117188	-0.01589039993286133	-0.06993229675292968	0.9440969848632812	-0.03078230094909668	-0.06961740112304687	0.9789240112304688	0.016248100280761717	-0.05508819961547851	0.9354500122070313	-0.000284076988697052	-0.051955398559570314	0.9444910278320312	-0.01391569995880127	-0.051108299255371095	0.9566270141601563	-0.0236432991027832	-0.05248849868774414	0.9825780029296876	-0.03864260101318359	-0.06177610015869141	1.051260009765625
